<svg width="15" height="15" viewBox="0 0 15 15" fill="none" xmlns="http://www.w3.org/2000/svg">
<path d="M7.50008 14.5834C3.58796 14.5834 0.416748 11.4121 0.416748 7.50002C0.416748 3.5879 3.58796 0.416687 7.50008 0.416687C11.4122 0.416687 14.5834 3.5879 14.5834 7.50002C14.5834 11.4121 11.4122 14.5834 7.50008 14.5834ZM7.50008 13.1667C9.00298 13.1667 10.4443 12.5697 11.507 11.507C12.5697 10.4443 13.1667 9.00291 13.1667 7.50002C13.1667 5.99713 12.5697 4.55579 11.507 3.49308C10.4443 2.43038 9.00298 1.83335 7.50008 1.83335C5.99719 1.83335 4.55585 2.43038 3.49314 3.49308C2.43044 4.55579 1.83341 5.99713 1.83341 7.50002C1.83341 9.00291 2.43044 10.4443 3.49314 11.507C4.55585 12.5697 5.99719 13.1667 7.50008 13.1667V13.1667ZM6.79387 10.3334L3.78842 7.3279L4.79 6.32631L6.79387 8.33019L10.8002 4.32315L11.8025 5.32473L6.79387 10.3334Z" fill="white"/>
</svg>
